<svg xmlns="http://www.w3.org/2000/svg" width="194" height="66" fill="none" viewBox="0 0 194 66">
  <rect width="192" height="64" x="1" y="1" fill="#0B090D" rx="12"/>
  <rect width="192" height="64" x="1" y="1" stroke="#1F1B26" stroke-width="2" rx="12"/>
  <path fill="#fff" d="M41.107 32.823a8.216 8.216 0 0 1 1.075-3.958 8.244 8.244 0 0 1 2.857-2.95 8.47 8.47 0 0 0-6.66-3.59c-2.801-.294-5.517 1.671-6.945 1.671-1.456 0-3.654-1.642-6.021-1.594a8.886 8.886 0 0 0-4.331 1.29 8.855 8.855 0 0 0-3.132 3.249c-3.227 5.571-.82 13.76 2.271 18.262 1.547 2.206 3.354 4.669 5.72 4.581 2.313-.095 3.178-1.471 5.971-1.471 2.768 0 3.579 1.471 5.992 1.416 2.483-.04 4.048-2.215 5.54-4.441a18.215 18.215 0 0 0 2.534-5.145 7.974 7.974 0 0 1-3.54-2.93 7.94 7.94 0 0 1-1.331-4.39Zm-4.557-13.46a8.092 8.092 0 0 0 1.859-5.808 8.28 8.28 0 0 0-5.352 2.761 7.709 7.709 0 0 0-1.908 5.593 6.855 6.855 0 0 0 5.4-2.546Zm32.323 25.06h-7.595l-1.824 5.37h-3.217l7.194-19.868h3.342l7.194 19.869h-3.272l-1.822-5.37Zm-6.808-2.478h6.02l-2.968-8.715h-.083l-2.97 8.715Zm27.437.607c0 4.501-2.416 7.393-6.062 7.393a4.937 4.937 0 0 1-2.65-.612 4.918 4.918 0 0 1-1.92-1.922h-.07v7.175h-2.98V35.308h2.886v2.41h.055a5.147 5.147 0 0 1 1.958-1.918 5.166 5.166 0 0 1 2.667-.644c3.687 0 6.117 2.907 6.117 7.396Zm-3.064 0c0-2.933-1.52-4.861-3.84-4.861-2.278 0-3.81 1.968-3.81 4.86 0 2.92 1.532 4.874 3.81 4.874 2.32 0 3.84-1.914 3.84-4.873Zm19.054 0c0 4.501-2.417 7.393-6.063 7.393a4.937 4.937 0 0 1-2.65-.612 4.919 4.919 0 0 1-1.921-1.922h-.069v7.175h-2.982V35.308h2.886v2.41h.055a5.147 5.147 0 0 1 1.958-1.918 5.165 5.165 0 0 1 2.668-.644c3.687 0 6.118 2.907 6.118 7.396Zm-3.066 0c0-2.933-1.52-4.861-3.839-4.861-2.278 0-3.81 1.968-3.81 4.86 0 2.92 1.532 4.874 3.81 4.874 2.319 0 3.839-1.914 3.839-4.873Zm13.631 1.706c.221 1.97 2.141 3.264 4.764 3.264 2.513 0 4.321-1.294 4.321-3.07 0-1.543-1.091-2.466-3.673-3.099l-2.582-.62c-3.659-.881-5.357-2.588-5.357-5.356 0-3.429 2.996-5.783 7.248-5.783 4.212 0 7.098 2.354 7.195 5.782h-3.01c-.18-1.982-1.824-3.18-4.226-3.18s-4.045 1.212-4.045 2.974c0 1.405 1.05 2.231 3.618 2.864l2.195.538c4.088.964 5.785 2.601 5.785 5.508 0 3.717-2.968 6.045-7.69 6.045-4.419 0-7.402-2.274-7.595-5.867h3.052Zm18.671-12.378v3.428h2.763v2.355h-2.763v7.985c0 1.241.553 1.82 1.768 1.82a9.76 9.76 0 0 0 .981-.07v2.341a8.21 8.21 0 0 1-1.657.138c-2.941 0-4.088-1.102-4.088-3.911v-8.303h-2.112v-2.355h2.112V31.88h2.996Zm4.361 10.672c0-4.558 2.692-7.422 6.89-7.422 4.211 0 6.891 2.864 6.891 7.422 0 4.57-2.666 7.421-6.891 7.421s-6.89-2.851-6.89-7.421Zm10.742 0c0-3.127-1.436-4.972-3.852-4.972-2.417 0-3.853 1.86-3.853 4.972 0 3.139 1.436 4.97 3.853 4.97 2.416 0 3.852-1.831 3.852-4.97Zm5.497-7.244h2.844v2.465h.069c.192-.77.645-1.45 1.281-1.927a3.471 3.471 0 0 1 2.213-.69c.344 0 .686.036 1.022.111v2.781a4.183 4.183 0 0 0-1.34-.18 3.014 3.014 0 0 0-2.322.954 2.978 2.978 0 0 0-.785 2.38v8.592h-2.982V35.308Zm21.177 10.232c-.402 2.629-2.97 4.433-6.256 4.433-4.225 0-6.848-2.823-6.848-7.353 0-4.543 2.637-7.49 6.723-7.49 4.019 0 6.547 2.753 6.547 7.145v1.019h-10.26v.18a3.77 3.77 0 0 0 2.34 3.826 3.79 3.79 0 0 0 1.567.277 3.297 3.297 0 0 0 2.017-.464 3.278 3.278 0 0 0 1.338-1.574h2.832Zm-10.08-4.324h7.262a3.47 3.47 0 0 0-.976-2.615 3.49 3.49 0 0 0-2.587-1.062 3.686 3.686 0 0 0-2.618 1.07 3.671 3.671 0 0 0-1.081 2.607ZM61.692 14.97a4.245 4.245 0 0 1 3.378 1.308 4.222 4.222 0 0 1 1.127 3.435c0 3.05-1.653 4.803-4.505 4.803h-3.458V14.97h3.458Zm-1.971 8.196h1.805a3.018 3.018 0 0 0 2.398-.967 3 3 0 0 0 .759-2.466 3.003 3.003 0 0 0-1.856-3.198 3.025 3.025 0 0 0-1.301-.216H59.72v6.847Zm8.155-2.255a3.404 3.404 0 0 1 .875-2.62 3.423 3.423 0 0 1 2.532-1.118 3.432 3.432 0 0 1 2.533 1.117 3.411 3.411 0 0 1 .875 2.621 3.404 3.404 0 0 1-.872 2.625 3.423 3.423 0 0 1-2.535 1.12 3.431 3.431 0 0 1-2.536-1.12 3.412 3.412 0 0 1-.872-2.625Zm5.348 0c0-1.562-.703-2.475-1.938-2.475-1.24 0-1.937.913-1.937 2.475 0 1.574.697 2.48 1.937 2.48 1.235 0 1.938-.912 1.938-2.48Zm10.525 3.605h-1.48l-1.493-5.306h-.112l-1.487 5.306h-1.465l-1.992-7.204h1.446l1.295 5.497h.106l1.486-5.497h1.368l1.485 5.497h.113l1.288-5.497h1.425l-1.983 7.204Zm3.658-7.204h1.373v1.144h.107a2.159 2.159 0 0 1 2.156-1.283 2.356 2.356 0 0 1 1.896.74 2.344 2.344 0 0 1 .604 1.94v4.663h-1.425V20.21c0-1.157-.505-1.733-1.56-1.733a1.662 1.662 0 0 0-1.647 1.123 1.649 1.649 0 0 0-.078.703v4.214h-1.425v-7.204Zm8.408-2.812h1.426v10.016h-1.426V14.5Zm3.409 6.41a3.404 3.404 0 0 1 .874-2.62 3.425 3.425 0 0 1 3.918-.825 3.425 3.425 0 0 1 1.863 2.043c.151.452.205.93.16 1.403a3.413 3.413 0 0 1-2.021 3.452 3.433 3.433 0 0 1-3.922-.827 3.407 3.407 0 0 1-.873-2.625Zm5.347 0c0-1.56-.703-2.474-1.938-2.474-1.239 0-1.937.913-1.937 2.475 0 1.574.698 2.48 1.937 2.48 1.235 0 1.938-.912 1.938-2.48Zm2.969 1.569c0-1.297.968-2.045 2.687-2.15l1.957-.113v-.622c0-.761-.505-1.19-1.479-1.19-.796 0-1.348.29-1.506.8h-1.38c.145-1.238 1.313-2.031 2.952-2.031 1.811 0 2.832.899 2.832 2.42v4.923h-1.372v-1.012h-.113a2.425 2.425 0 0 1-2.17 1.131 2.19 2.19 0 0 1-1.684-.545 2.165 2.165 0 0 1-.724-1.611Zm4.644-.616v-.602l-1.764.112c-.995.067-1.447.404-1.447 1.04 0 .648.564 1.025 1.34 1.025a1.707 1.707 0 0 0 1.691-.922c.103-.204.164-.425.18-.653Zm3.294-.953c0-2.276 1.173-3.718 2.999-3.718a2.38 2.38 0 0 1 2.215 1.264h.107V14.5h1.426v10.017h-1.367v-1.138h-.113a2.5 2.5 0 0 1-2.268 1.257c-1.838 0-2.999-1.442-2.999-3.724Zm1.472 0c0 1.53.723 2.449 1.931 2.449 1.202 0 1.944-.933 1.944-2.442 0-1.501-.75-2.448-1.944-2.448-1.2 0-1.931.926-1.931 2.442Zm11.174.001a3.404 3.404 0 0 1 2.022-3.446 3.432 3.432 0 0 1 3.918.825 3.414 3.414 0 0 1 .874 2.621 3.395 3.395 0 0 1-.872 2.625 3.421 3.421 0 0 1-2.535 1.12 3.429 3.429 0 0 1-3.25-2.34 3.412 3.412 0 0 1-.157-1.405Zm5.348 0c0-1.562-.704-2.475-1.939-2.475-1.239 0-1.936.913-1.936 2.475 0 1.574.697 2.48 1.936 2.48 1.235 0 1.939-.912 1.939-2.48Zm3.379-3.599h1.373v1.144h.107a2.167 2.167 0 0 1 2.156-1.284 2.353 2.353 0 0 1 2.42 1.642c.104.336.132.69.08 1.038v4.664h-1.426V20.21c0-1.157-.504-1.733-1.559-1.733a1.66 1.66 0 0 0-1.647 1.123 1.641 1.641 0 0 0-.078.703v4.214h-1.426v-7.204Zm14.193-1.794v1.827h1.566v1.197h-1.566v3.705c0 .755.312 1.085 1.022 1.085.182 0 .363-.012.544-.033v1.185c-.256.045-.516.07-.776.072-1.586 0-2.217-.556-2.217-1.945v-4.069h-1.147v-1.198h1.147v-1.826h1.427Zm3.513-1.018h1.414v3.97h.112a2.223 2.223 0 0 1 2.203-1.291 2.384 2.384 0 0 1 2.399 1.655c.106.333.136.685.09 1.03v4.652h-1.428v-4.3c0-1.151-.537-1.734-1.545-1.734a1.694 1.694 0 0 0-1.335.491 1.68 1.68 0 0 0-.484 1.336v4.207h-1.426V14.5Zm14.532 8.071a2.929 2.929 0 0 1-3.131 2.084 3.288 3.288 0 0 1-3.225-2.315 3.267 3.267 0 0 1-.113-1.403 3.317 3.317 0 0 1 .805-2.64 3.333 3.333 0 0 1 2.527-1.124c2.01 0 3.223 1.37 3.223 3.632v.496h-5.102v.08a1.902 1.902 0 0 0 1.15 1.91c.244.104.508.156.774.154a1.737 1.737 0 0 0 1.719-.874h1.373Zm-5.016-2.322h3.649a1.73 1.73 0 0 0-.475-1.326 1.74 1.74 0 0 0-1.303-.54 1.85 1.85 0 0 0-1.735 1.148 1.84 1.84 0 0 0-.136.718Z"/>
</svg>
