<svg xmlns="http://www.w3.org/2000/svg" width="326" height="303" fill="none" viewBox="0 0 326 303">
  <path stroke="#1F1B26" d="M325.5 144.401c0 39.704-20.99 89.638-49.53 122.663-14.267 16.511-30.379 28.745-46.641 33.39-16.226 4.634-32.637 1.727-47.615-12.125-15.169-14.029-35.557-24.98-57.152-34.781-9.977-4.528-20.223-8.816-30.338-13.049l-2.5-1.046c-10.926-4.575-21.661-9.104-31.718-13.831-20.129-9.459-37.471-19.677-48.159-32.558-10.653-12.84-14.715-28.349-8.231-48.51 6.51-20.249 15.803-34.123 27.175-44.56 11.38-10.443 24.867-17.466 39.811-23.98 5.156-2.247 10.485-4.433 15.957-6.678 26.229-10.76 55.748-22.87 85.306-49.552 17.725-16 36.147-21.156 53.809-18.704 17.683 2.456 34.67 12.547 49.475 27.164C304.767 57.488 325.5 104.7 325.5 144.401Z"/>
</svg>
