<svg xmlns="http://www.w3.org/2000/svg" width="218" height="66" fill="none" viewBox="0 0 218 66">
  <g clip-path="url(#a)">
    <rect width="216" height="64" x="1" y="1" fill="#0B090D" rx="12"/>
    <path fill="#fff" stroke="#fff" stroke-miterlimit="10" stroke-width=".299" d="M76.872 17.384a4.352 4.352 0 0 1-1.2 3.2 4.641 4.641 0 0 1-3.52 1.408 4.8 4.8 0 0 1-3.536-1.44 5.104 5.104 0 0 1 0-7.136 5.056 5.056 0 0 1 5.504-1.04 4.062 4.062 0 0 1 1.504 1.072l-.848.848a3.2 3.2 0 0 0-2.624-1.152 3.84 3.84 0 1 0 2.688 6.608 3.072 3.072 0 0 0 .8-1.952h-3.488v-1.152h4.656c.036.244.058.49.064.736Zm7.328-4h-4.32v3.04h3.936v1.152H79.88v3.04h4.32V21.8h-5.568v-9.6H84.2v1.184Zm5.248 8.416h-1.232v-8.416h-2.688V12.2H92.2v1.184h-2.752V21.8Zm7.456 0v-9.6h1.232v9.6h-1.232Zm6.704 0h-1.232v-8.416h-2.688V12.2h6.592v1.184h-2.672V21.8Zm15.168-1.248a4.976 4.976 0 0 1-7.04 0 5.182 5.182 0 0 1 0-7.104 4.687 4.687 0 0 1 3.52-1.456 4.803 4.803 0 0 1 3.52 1.456A4.917 4.917 0 0 1 120.184 17a4.803 4.803 0 0 1-1.408 3.552Zm-6.128-.8a3.664 3.664 0 0 0 5.216 0 4.066 4.066 0 0 0 0-5.504 3.665 3.665 0 0 0-5.216 0 4.066 4.066 0 0 0 0 5.504Zm9.28 2.048v-9.6h1.488l4.672 7.472V12.2h1.232v9.6h-1.28l-4.88-7.824V21.8h-1.232Z"/>
    <path fill="#fff" d="M110.024 35.8a6.817 6.817 0 1 0 6.832 6.8 6.707 6.707 0 0 0-4.205-6.318 6.703 6.703 0 0 0-2.627-.482Zm0 10.928a4.126 4.126 0 0 1-4.013-2.339 4.13 4.13 0 0 1 .703-4.59 4.124 4.124 0 0 1 4.528-1.032 4.124 4.124 0 0 1 2.622 3.833 3.936 3.936 0 0 1-3.84 4.128ZM95.112 35.8a6.817 6.817 0 1 0 6.832 6.8 6.707 6.707 0 0 0-4.205-6.318 6.705 6.705 0 0 0-2.627-.482Zm0 10.928a4.128 4.128 0 1 1 3.84-4.128 3.936 3.936 0 0 1-3.84 4.128Zm-17.728-8.832v2.88h6.912a6.032 6.032 0 0 1-1.6 3.632 7.07 7.07 0 0 1-5.344 2.112 7.68 7.68 0 1 1 0-15.36 7.425 7.425 0 0 1 5.248 2.064l2.032-2.032a10.08 10.08 0 0 0-7.248-2.912 10.576 10.576 0 1 0 0 21.136 9.712 9.712 0 0 0 7.376-2.96 9.6 9.6 0 0 0 2.496-6.768c.006-.6-.043-1.2-.144-1.792h-9.728Zm72.496 2.24a6.4 6.4 0 0 0-5.824-4.336 6.4 6.4 0 0 0-6.4 6.8 6.77 6.77 0 0 0 12.416 3.792l-2.32-1.6a3.854 3.854 0 0 1-3.344 1.872 3.443 3.443 0 0 1-3.296-2.064l9.104-3.76-.336-.704Zm-9.28 2.272a3.755 3.755 0 0 1 2.132-3.627c.45-.213.938-.335 1.436-.357a2.625 2.625 0 0 1 2.512 1.456l-6.08 2.528ZM133.208 49h2.992V29h-2.992v20Zm-4.896-11.68h-.112a4.709 4.709 0 0 0-3.584-1.6 6.816 6.816 0 0 0 0 13.616 4.61 4.61 0 0 0 3.584-1.6h.112v.976c0 2.608-1.392 4-3.632 4a3.774 3.774 0 0 1-3.44-2.416l-2.592 1.072a6.398 6.398 0 0 0 6.032 4.032c3.504 0 6.4-2.064 6.4-7.088V36.2h-2.768v1.12Zm-3.44 9.408a4.131 4.131 0 0 1-3.871-4.12 4.128 4.128 0 0 1 3.871-4.12 3.823 3.823 0 0 1 3.648 4.112 3.797 3.797 0 0 1-.941 2.844 3.81 3.81 0 0 1-2.707 1.284ZM163.896 29h-7.168v20h2.992v-7.584h4.176a6.221 6.221 0 0 0 6.67-6.208 6.228 6.228 0 0 0-1.984-4.556A6.219 6.219 0 0 0 163.896 29Zm0 9.6h-4.176v-6.816h4.24a3.42 3.42 0 0 1 3.163 2.114 3.426 3.426 0 0 1-1.853 4.473c-.415.172-.86.261-1.31.261l-.064-.032Zm18.464-2.864a5.583 5.583 0 0 0-5.328 3.056l2.64 1.104a2.848 2.848 0 0 1 2.736-1.456 2.879 2.879 0 0 1 3.2 2.576v.192a6.688 6.688 0 0 0-3.12-.768c-2.848 0-5.76 1.6-5.76 4.512a4.62 4.62 0 0 0 4.976 4.4 4.237 4.237 0 0 0 3.808-1.952h.096V49h2.88v-7.696c0-3.504-2.656-5.536-6.064-5.536l-.064-.032Zm-.368 10.96c-.976 0-2.336-.496-2.336-1.696 0-1.6 1.696-2.144 3.2-2.144.95-.023 1.89.209 2.72.672a3.613 3.613 0 0 1-3.52 3.2l-.064-.032ZM198.984 36.2l-3.424 8.672h-.096l-3.552-8.672h-3.2l5.328 12.128-3.04 6.736h3.12l8.192-18.864h-3.328ZM172.104 49h2.976V29h-2.976v20Z"/>
    <path fill="url(#b)" d="M17.704 13.064a3.2 3.2 0 0 0-.752 2.24v35.392a3.104 3.104 0 0 0 .752 2.24l.112.128L37.64 33.24v-.48L17.816 12.952l-.112.112Z"/>
    <path fill="url(#c)" d="m44.2 39.848-6.56-6.608v-.48l6.56-6.608.144.096 7.856 4.448c2.24 1.264 2.24 3.344 0 4.624l-7.824 4.448-.176.08Z"/>
    <path fill="url(#d)" d="M44.392 39.752 37.64 33 17.704 52.936a2.592 2.592 0 0 0 3.312.112l23.376-13.296Z"/>
    <path fill="url(#e)" d="m44.392 26.248-23.376-13.28a2.576 2.576 0 0 0-3.312.096L37.64 33l6.752-6.752Z"/>
    <path fill="#fff" d="m44.2 39.608-23.184 13.2a2.656 2.656 0 0 1-3.2 0l-.112.112.112.128a2.656 2.656 0 0 0 3.2 0l23.376-13.296-.192-.144Z" opacity=".2"/>
    <path fill="#fff" d="M17.704 52.712A3.2 3.2 0 0 1 17 50.456v.24a3.104 3.104 0 0 0 .752 2.24l.112-.112-.16-.112ZM52.2 35.08l-8 4.528.144.144 7.856-4.448A2.8 2.8 0 0 0 53.896 33a2.976 2.976 0 0 1-1.696 2.08Z" opacity=".12"/>
    <path fill="#fff" d="M21.016 13.192 52.2 30.92A2.976 2.976 0 0 1 53.896 33a2.8 2.8 0 0 0-1.696-2.304L21.016 12.968c-2.224-1.28-4.064-.224-4.064 2.336v.24c.048-2.56 1.84-3.616 4.064-2.352Z" opacity=".25"/>
  </g>
  <rect width="216" height="64" x="1" y="1" stroke="#1F1B26" stroke-width="2" rx="12"/>
  <defs>
    <linearGradient id="b" x1="35.88" x2="9.032" y1="14.936" y2="41.784" gradientUnits="userSpaceOnUse">
      <stop stop-color="#00A0FF"/>
      <stop offset=".01" stop-color="#00A1FF"/>
      <stop offset=".26" stop-color="#00BEFF"/>
      <stop offset=".51" stop-color="#00D2FF"/>
      <stop offset=".76" stop-color="#00DFFF"/>
      <stop offset="1" stop-color="#00E3FF"/>
    </linearGradient>
    <linearGradient id="c" x1="55.128" x2="16.424" y1="33" y2="33" gradientUnits="userSpaceOnUse">
      <stop stop-color="#FFE000"/>
      <stop offset=".41" stop-color="#FFBD00"/>
      <stop offset=".78" stop-color="orange"/>
      <stop offset="1" stop-color="#FF9C00"/>
    </linearGradient>
    <linearGradient id="d" x1="40.728" x2="4.312" y1="36.68" y2="73.08" gradientUnits="userSpaceOnUse">
      <stop stop-color="#FF3A44"/>
      <stop offset="1" stop-color="#C31162"/>
    </linearGradient>
    <linearGradient id="e" x1="12.68" x2="28.936" y1="1.288" y2="17.544" gradientUnits="userSpaceOnUse">
      <stop stop-color="#32A071"/>
      <stop offset=".07" stop-color="#2DA771"/>
      <stop offset=".48" stop-color="#15CF74"/>
      <stop offset=".8" stop-color="#06E775"/>
      <stop offset="1" stop-color="#00F076"/>
    </linearGradient>
    <clipPath id="a">
      <rect width="216" height="64" x="1" y="1" fill="#fff" rx="12"/>
    </clipPath>
  </defs>
</svg>
