<svg xmlns="http://www.w3.org/2000/svg" width="112" height="32" fill="none" viewBox="0 0 112 32">
  <g clip-path="url(#a)">
    <path stroke="#7F35FF" stroke-linecap="round" stroke-linejoin="round" stroke-width="1.936" d="M1.506 16.323 12.262 1.265M1.506 16.323l10.756 13.982M1.506 16.323c8.32 1.454 13.006 1.503 21.511 0M12.262 1.265v29.04m0-29.04 3.84 5.377m6.915 9.68L12.262 30.306m10.755-13.982-3.841-5.378"/>
  </g>
  <path fill="#fff" d="M47.198 13.24h-3.212a3.142 3.142 0 0 0-.36-1.108 2.819 2.819 0 0 0-.696-.836 3.065 3.065 0 0 0-.983-.528 3.76 3.76 0 0 0-1.195-.184c-.777 0-1.455.194-2.031.58-.577.381-1.025.938-1.342 1.672-.318.728-.477 1.613-.477 2.655 0 1.07.159 1.97.477 2.698.322.729.772 1.279 1.349 1.65.577.372 1.244.558 2.002.558.425 0 .819-.057 1.18-.17.367-.111.693-.275.976-.49a2.83 2.83 0 0 0 .704-.8c.19-.313.323-.67.396-1.07l3.212.014a5.992 5.992 0 0 1-1.95 3.703 6.25 6.25 0 0 1-1.98 1.189c-.763.288-1.626.432-2.59.432-1.339 0-2.537-.303-3.593-.909-1.05-.606-1.882-1.484-2.493-2.633-.606-1.149-.91-2.54-.91-4.172 0-1.638.308-3.032.924-4.18.617-1.15 1.453-2.025 2.509-2.626 1.056-.606 2.244-.91 3.564-.91.87 0 1.677.123 2.42.367.748.245 1.41.602 1.987 1.071a5.508 5.508 0 0 1 1.408 1.709c.367.674.602 1.447.704 2.317ZM49.417 23V11.736h3.028V13.7h.118c.205-.699.55-1.227 1.034-1.584a2.718 2.718 0 0 1 1.672-.543 4.63 4.63 0 0 1 .982.11v2.773a4.079 4.079 0 0 0-.608-.118 5.47 5.47 0 0 0-.712-.051c-.46 0-.87.1-1.232.3-.357.196-.64.47-.85.822a2.37 2.37 0 0 0-.308 1.217V23h-3.124Zm10.721 4.224c-.396 0-.767-.032-1.114-.095a4.06 4.06 0 0 1-.851-.228l.704-2.332c.366.113.697.174.99.184.298.01.555-.059.77-.206.22-.146.398-.396.535-.748l.184-.476-4.041-11.587H60.6l2.332 8.272h.118l2.354-8.272h3.307l-4.378 12.481a5.241 5.241 0 0 1-.858 1.584c-.357.455-.81.805-1.357 1.05-.547.248-1.207.373-1.98.373Zm10.172 0V11.736h3.08v1.892h.14c.136-.303.334-.611.593-.924a3.132 3.132 0 0 1 1.027-.792c.425-.215.953-.323 1.584-.323.821 0 1.579.215 2.273.645.694.426 1.25 1.069 1.665 1.93.416.855.623 1.928.623 3.219 0 1.256-.203 2.317-.608 3.182-.401.86-.949 1.513-1.643 1.958-.69.44-1.462.66-2.317.66-.607 0-1.123-.1-1.548-.3-.42-.2-.765-.453-1.034-.756a3.836 3.836 0 0 1-.616-.931h-.095v6.028H70.31Zm3.058-9.856c0 .67.093 1.254.279 1.753.185.498.454.887.806 1.166.352.273.78.41 1.284.41.508 0 .938-.14 1.29-.418.352-.283.619-.674.8-1.173.185-.504.278-1.083.278-1.738 0-.65-.09-1.222-.271-1.716-.181-.494-.447-.88-.8-1.159-.351-.279-.784-.418-1.297-.418-.509 0-.94.135-1.291.404-.347.268-.614.65-.8 1.144-.185.493-.278 1.075-.278 1.745Zm16.002-5.632v2.346h-6.784v-2.346h6.784Zm-5.244-2.699h3.124v10.502c0 .288.044.513.132.674.088.157.21.267.367.33.161.064.347.096.557.096.147 0 .294-.013.44-.037.147-.03.26-.051.338-.066l.49 2.325a8.777 8.777 0 0 1-.66.168c-.283.069-.627.11-1.033.125-.753.03-1.413-.07-1.98-.3-.563-.23-1-.587-1.313-1.071-.313-.484-.467-1.096-.462-1.834V9.037ZM96.373 23.22c-1.14 0-2.124-.242-2.955-.726a4.969 4.969 0 0 1-1.914-2.039c-.45-.875-.675-1.89-.675-3.043 0-1.164.225-2.18.675-3.05a4.91 4.91 0 0 1 1.914-2.04c.83-.488 1.816-.733 2.955-.733 1.14 0 2.122.245 2.948.733a4.89 4.89 0 0 1 1.921 2.04c.45.87.675 1.886.675 3.05 0 1.154-.225 2.168-.675 3.043a4.95 4.95 0 0 1-1.92 2.039c-.827.484-1.81.726-2.949.726Zm.015-2.42c.518 0 .95-.147 1.298-.44.347-.298.608-.704.784-1.217.181-.514.272-1.098.272-1.753 0-.655-.09-1.24-.272-1.753-.176-.513-.437-.919-.784-1.217-.347-.298-.78-.448-1.298-.448-.523 0-.963.15-1.32.448-.352.298-.619.704-.8 1.217-.176.514-.264 1.098-.264 1.753 0 .655.088 1.24.264 1.753.181.513.448.919.8 1.217.357.293.797.44 1.32.44Zm9.121-7.83V9.721h1.571c.229 0 .431.044.607.132a.969.969 0 0 1 .414.374c.1.162.149.355.149.581 0 .229-.051.424-.154.585a1 1 0 0 1-.426.365 1.475 1.475 0 0 1-.621.124h-1.056v-.638h.889a.464.464 0 0 0 .321-.11c.082-.074.123-.182.123-.326 0-.15-.041-.258-.123-.326a.47.47 0 0 0-.317-.105h-.488v2.591h-.889Zm2.112-1.488.717 1.488h-.972l-.66-1.488h.915Zm-.823 3.424a3.44 3.44 0 0 1-1.368-.273 3.544 3.544 0 0 1-1.879-1.88 3.441 3.441 0 0 1-.273-1.367c0-.487.091-.944.273-1.369a3.536 3.536 0 0 1 1.879-1.879 3.44 3.44 0 0 1 1.368-.273c.487 0 .943.091 1.369.273a3.546 3.546 0 0 1 1.879 1.879c.181.425.272.882.272 1.369 0 .486-.091.943-.272 1.368a3.552 3.552 0 0 1-1.879 1.879 3.448 3.448 0 0 1-1.369.273Zm0-.96c.476 0 .907-.114 1.294-.343.387-.232.695-.541.924-.928a2.46 2.46 0 0 0 .348-1.29 2.46 2.46 0 0 0-.348-1.289 2.574 2.574 0 0 0-.928-.924 2.466 2.466 0 0 0-1.29-.347 2.46 2.46 0 0 0-1.289.347 2.613 2.613 0 0 0-.928.924 2.486 2.486 0 0 0-.344 1.29c0 .472.115.902.344 1.289.231.387.541.696.928.928.387.229.817.343 1.289.343Z"/>
  <defs>
    <clipPath id="a">
      <path fill="#fff" d="M0 .189h24.523v31.622H0z"/>
    </clipPath>
  </defs>
</svg>
